<?xml version="1.0" encoding="iso-8859-1"?>
<!-- Generator: Adobe Illustrator 16.0.0, SVG Export Plug-In . SVG Version: 6.00 Build 0)  -->
<!DOCTYPE svg PUBLIC "-//W3C//DTD SVG 1.1//EN" "http://www.w3.org/Graphics/SVG/1.1/DTD/svg11.dtd">
<svg version="1.1" id="Capa_1" xmlns="http://www.w3.org/2000/svg" xmlns:xlink="http://www.w3.org/1999/xlink" x="0px" y="0px"
	 width="93.756px" height="93.757px" viewBox="0 0 93.756 93.757" style="enable-background:new 0 0 93.756 93.757;"
	 xml:space="preserve">
<g>
	<g>
		<polygon points="60.258,0 57.152,8.872 75.786,21.738 		"/>
		<path d="M78.752,70.473l7.461-7.462c2.136-2.135,2.136-5.597,0-7.731l-6.263-6.264c-1.649-1.648-4.086-2.01-6.096-1.109V28.27
			L49.728,11.611L53.56,0.662H5.942v93.095h67.912v-0.715c0.709,0.317,1.467,0.491,2.23,0.491c1.398,0,2.797-0.534,3.865-1.603
			l6.264-6.263c2.135-2.135,2.135-5.598,0-7.732L78.752,70.473z M75.667,88.416L64.338,77.088L53.01,88.416l-6.263-6.264
			l11.328-11.327L46.747,59.497l6.263-6.263l11.328,11.328l11.328-11.328l6.262,6.263L70.602,70.825L81.93,82.152L75.667,88.416z"/>
	</g>
</g>
<g>
</g>
<g>
</g>
<g>
</g>
<g>
</g>
<g>
</g>
<g>
</g>
<g>
</g>
<g>
</g>
<g>
</g>
<g>
</g>
<g>
</g>
<g>
</g>
<g>
</g>
<g>
</g>
<g>
</g>
</svg>
