<?xml version="1.0" encoding="iso-8859-1"?>
<!-- Generator: Adobe Illustrator 19.0.0, SVG Export Plug-In . SVG Version: 6.00 Build 0)  -->
<svg version="1.1" id="Capa_1" xmlns="http://www.w3.org/2000/svg" xmlns:xlink="http://www.w3.org/1999/xlink" x="0px" y="0px"
	 viewBox="0 0 367.2 367.2" style="enable-background:new 0 0 367.2 367.2;" xml:space="preserve">
<g>
	<g>
		<g>
			<path d="M271.4,76c-8.4,0-15.6-3.2-21.2-8.8c-5.6-5.6-8.8-12.8-8.8-21.2V0H59.8C57,0,54.6,1.2,53,2.8l-0.4,0.4
				c-2,2-3.2,4.4-3.2,7.2v346.4c0,2.8,1.2,5.6,3.2,7.2c2,2,4.4,3.2,7.2,3.2h247.6c2.8,0,5.6-1.2,7.2-3.2c2-2,3.2-4.4,3.2-7.2V76
				H271.4z M239.8,230.8v28.4c0,4.4-4,8.4-8.8,8.4s-8.8-4-8.8-8.8v-11.2c-12,7.2-25.6,10.8-39.2,10.8c-19.6,0-39.2-7.6-54-22.4
				c-7.2-7.2-12.8-15.6-16.4-24.8C109,202,107,192,107,182c0-4.8,4-8.8,8.8-8.8s8.8,4,8.8,8.8c0,8,1.6,15.6,4.4,22.8
				s7.2,13.6,12.8,19.2c11.6,11.6,26.4,17.2,41.6,17.2c6.4,0,13.2-1.2,19.6-3.2h-0.8c-4.8,0-8.4-4-8.4-8.8s4-8.4,8.8-8.4l28.4,0.8
				c2.4,0,4.8,0.8,6.4,2.4C239.4,226,240.2,228.4,239.8,230.8z M251.4,194c-4.8,0-8.8-4-8.8-8.8c0-8-1.6-15.6-4.4-22.8
				s-7.2-13.6-12.8-19.2C213.8,131.6,199,126,183.8,126c-6.4,0-13.2,1.2-19.6,3.2l0.8,0.4c4.8,0,8.4,4,8.4,8.8s-4,8.4-8.8,8.4
				l-28.4-0.8c-2.4,0-4.8-0.8-6.4-2.4c-2-2-2.8-4.4-2.4-6.8v-28.4c0-4.8,4-8.8,8.8-8.8c4.8,0,8.8,4,8.8,8.8v11.2
				c12-7.2,25.6-10.8,39.2-10.8c19.6,0,39.2,7.6,54,22.4c7.2,7.2,12.8,15.6,16.4,24.8c3.6,9.2,5.6,19.2,5.6,29.2
				C260.2,190,256.2,194,251.4,194z"/>
			<path d="M271.4,58.4H305l-22.8-22.8L259,12.4V46c0,3.2,1.2,6.4,3.6,8.8C265,57.2,268.2,58.4,271.4,58.4z"/>
		</g>
	</g>
</g>
<g>
</g>
<g>
</g>
<g>
</g>
<g>
</g>
<g>
</g>
<g>
</g>
<g>
</g>
<g>
</g>
<g>
</g>
<g>
</g>
<g>
</g>
<g>
</g>
<g>
</g>
<g>
</g>
<g>
</g>
</svg>
